Coordinates
version=1
nRows=21
nColumns=27
inDegrees=yes

Units are S.I. units (second, meters, Newtons, ...)
If the header above contains a line with 'inDegrees', this indicates whether rotational values are in degrees (yes) or radians (no).

endheader
time	pelvis_rotation	pelvis_tilt	pelvis_list	pelvis_tx	pelvis_ty	pelvis_tz	hip_flexion_r	hip_adduction_r	hip_rotation_r	knee_angle_r	knee_rotation_r	knee_adduction_r	knee_angle_r_beta	ankle_angle_r	subtalar_angle_r	mtp_angle_r	hip_flexion_l	hip_adduction_l	hip_rotation_l	knee_angle_l	knee_rotation_l	knee_adduction_l	knee_angle_l_beta	ankle_angle_l	subtalar_angle_l	mtp_angle_l
      3.25500000	     -2.58922586	    -22.10127986	     -1.08891870	      0.09189723	      0.81891735	     -1.16582298	     44.57229139	    -25.14209379	    -18.00745352	     33.93143342	      0.00000000	      0.00000000	      0.59221523	      0.61413106	      0.00000000	      0.00000000	     44.89773392	    -24.44063724	     -5.12322641	     31.23652410	      0.00000000	      0.00000000	      0.54518019	      2.34476750	      0.00000000	      0.00000000
      3.26000000	     -2.69628926	    -22.50758424	     -0.91008468	      0.09046004	      0.81813089	     -1.16583948	     45.55464976	    -25.32087847	    -17.48080833	     34.48804334	      0.00000000	      0.00000000	      0.60192991	      0.68042552	      0.00000000	      0.00000000	     45.50832718	    -24.36760252	     -5.16210908	     31.53846720	      0.00000000	      0.00000000	      0.55045009	      2.31348681	      0.00000000	      0.00000000
      3.26500000	     -2.54938850	    -22.86834972	     -0.79831298	      0.08909341	      0.81734145	     -1.16588555	     46.27365381	    -25.56906657	    -17.37405200	     34.96319411	      0.00000000	      0.00000000	      0.61022285	      0.69878599	      0.00000000	      0.00000000	     46.25576661	    -24.22757888	     -4.83904477	     31.90236273	      0.00000000	      0.00000000	      0.55680127	      2.27305812	      0.00000000	      0.00000000
      3.27000000	     -2.60819126	    -23.23945008	     -0.57887317	      0.08770349	      0.81649173	     -1.16589786	     47.21337597	    -25.80517453	    -16.90161687	     35.52149709	      0.00000000	      0.00000000	      0.61996708	      0.73423552	      0.00000000	      0.00000000	     46.83108313	    -24.11396964	     -4.88874772	     32.18958631	      0.00000000	      0.00000000	      0.56181427	      2.24053258	      0.00000000	      0.00000000
      3.27500000	     -2.66580874	    -23.62175898	     -0.47078903	      0.08625249	      0.81560217	     -1.16579920	     48.11006414	    -25.93418299	    -16.49420830	     36.05095123	      0.00000000	      0.00000000	      0.62920780	      0.78449115	      0.00000000	      0.00000000	     47.49961778	    -24.09542108	     -4.83153082	     32.53858931	      0.00000000	      0.00000000	      0.56790552	      2.19446265	      0.00000000	      0.00000000
      3.28000000	     -2.58984696	    -23.92649249	     -0.38443422	      0.08497376	      0.81476075	     -1.16574110	     48.78356752	    -26.10782444	    -16.30671801	     36.49444720	      0.00000000	      0.00000000	      0.63694826	      0.83993975	      0.00000000	      0.00000000	     48.14489443	    -24.02897381	     -4.63251603	     32.87704086	      0.00000000	      0.00000000	      0.57381261	      2.15285760	      0.00000000	      0.00000000
      3.28500000	     -2.54102151	    -24.21534542	     -0.38220293	      0.08368152	      0.81389307	     -1.16560204	     49.41184669	    -26.19958385	    -16.15997660	     36.91569957	      0.00000000	      0.00000000	      0.64430050	      0.86342950	      0.00000000	      0.00000000	     48.80595234	    -24.04201402	     -4.39188837	     33.23711411	      0.00000000	      0.00000000	      0.58009708	      2.12618652	      0.00000000	      0.00000000
      3.29000000	     -2.40621362	    -24.50570899	     -0.27910949	      0.08237409	      0.81296006	     -1.16556580	     50.06340269	    -26.42827695	    -16.03430656	     37.38447202	      0.00000000	      0.00000000	      0.65248213	      0.91210319	      0.00000000	      0.00000000	     49.47051840	    -23.93088440	     -4.12823008	     33.58765299	      0.00000000	      0.00000000	      0.58621513	      2.08628252	      0.00000000	      0.00000000
      3.29500000	     -2.45672421	    -24.78785428	     -0.27159750	      0.08111420	      0.81206363	     -1.16539842	     50.75030418	    -26.46807762	    -15.75133568	     37.81807069	      0.00000000	      0.00000000	      0.66004985	      0.92380982	      0.00000000	      0.00000000	     50.06020313	    -23.99674450	     -4.03207546	     33.93029738	      0.00000000	      0.00000000	      0.59219541	      2.06791308	      0.00000000	      0.00000000
      3.30000000	     -2.25909520	    -24.98670378	     -0.35646890	      0.07995389	      0.81117077	     -1.16527338	     51.11338330	    -26.57609099	    -15.89186871	     38.16394499	      0.00000000	      0.00000000	      0.66608650	      0.92778663	      0.00000000	      0.00000000	     50.74189502	    -23.98933914	     -3.54168274	     34.31347655	      0.00000000	      0.00000000	      0.59888314	      2.03699478	      0.00000000	      0.00000000
      3.30500000	     -2.20105461	    -25.20294952	     -0.42059629	      0.07880102	      0.81027468	     -1.16512184	     51.59588057	    -26.63014854	    -15.84584841	     38.53394787	      0.00000000	      0.00000000	      0.67254426	      0.93269506	      0.00000000	      0.00000000	     51.34953620	    -24.04398246	     -3.25548812	     34.67167180	      0.00000000	      0.00000000	      0.60513483	      2.02204222	      0.00000000	      0.00000000
      3.31000000	     -2.13788738	    -25.42413913	     -0.40296728	      0.07762391	      0.80935026	     -1.16506923	     52.13731108	    -26.74581966	    -15.71608115	     38.93057775	      0.00000000	      0.00000000	      0.67946676	      0.95166580	      0.00000000	      0.00000000	     51.91858873	    -24.03038407	     -3.03399542	     35.01149634	      0.00000000	      0.00000000	      0.61106589	      2.02183851	      0.00000000	      0.00000000
      3.31500000	     -2.05684161	    -25.63794070	     -0.41281509	      0.07647247	      0.80843329	     -1.16503237	     52.63291509	    -26.85440545	    -15.63981110	     39.30262049	      0.00000000	      0.00000000	      0.68596013	      0.95235631	      0.00000000	      0.00000000	     52.49730554	    -24.02107236	     -2.75842927	     35.35026710	      0.00000000	      0.00000000	      0.61697855	      2.02852379	      0.00000000	      0.00000000
      3.32000000	     -2.06708869	    -25.85653520	     -0.34774771	      0.07532052	      0.80746528	     -1.16504546	     53.24864704	    -26.97118626	    -15.37399122	     39.72110231	      0.00000000	      0.00000000	      0.69326402	      0.96387257	      0.00000000	      0.00000000	     53.00044354	    -24.01862610	     -2.68268439	     35.67405032	      0.00000000	      0.00000000	      0.62262964	      1.99690850	      0.00000000	      0.00000000
      3.32500000	     -2.07672191	    -26.11419845	     -0.25200967	      0.07410839	      0.80649809	     -1.16508276	     53.93447298	    -27.10541811	    -15.06556639	     40.15638715	      0.00000000	      0.00000000	      0.70086117	      0.98343381	      0.00000000	      0.00000000	     53.52791790	    -23.99279030	     -2.62370243	     35.98731017	      0.00000000	      0.00000000	      0.62809705	      1.96601566	      0.00000000	      0.00000000
      3.33000000	     -2.02005659	    -26.30474365	     -0.26594256	      0.07301962	      0.80556593	     -1.16512017	     54.40970130	    -27.20673535	    -14.98822230	     40.50829936	      0.00000000	      0.00000000	      0.70700320	      0.94366697	      0.00000000	      0.00000000	     54.06023077	    -24.00063661	     -2.39705071	     36.31877269	      0.00000000	      0.00000000	      0.63388216	      1.99398769	      0.00000000	      0.00000000
      3.33500000	     -2.05942039	    -26.58075698	     -0.09390929	      0.07180422	      0.80453382	     -1.16527635	     55.18179280	    -27.37609050	    -14.55452791	     40.95742765	      0.00000000	      0.00000000	      0.71484197	      0.98986305	      0.00000000	      0.00000000	     54.55945802	    -23.94197134	     -2.46028878	     36.63501019	      0.00000000	      0.00000000	      0.63940155	      1.99234396	      0.00000000	      0.00000000
      3.34000000	     -2.06593657	    -26.78975298	      0.02819461	      0.07072347	      0.80358066	     -1.16540996	     55.81077920	    -27.53145458	    -14.24919980	     41.36053022	      0.00000000	      0.00000000	      0.72187743	      0.96212283	      0.00000000	      0.00000000	     54.99352694	    -23.90776257	     -2.46489871	     36.91282874	      0.00000000	      0.00000000	      0.64425040	      1.94475678	      0.00000000	      0.00000000
      3.34500000	     -2.09994811	    -27.03039473	      0.14518019	      0.06959029	      0.80259815	     -1.16554043	     56.48898310	    -27.65685696	    -13.89464945	     41.76158159	      0.00000000	      0.00000000	      0.72887710	      0.95956778	      0.00000000	      0.00000000	     55.46530836	    -23.89440792	     -2.49449754	     37.21129110	      0.00000000	      0.00000000	      0.64945955	      1.92999149	      0.00000000	      0.00000000
      3.35000000	     -2.01098806	    -27.23437759	      0.22137903	      0.06852437	      0.80164646	     -1.16570752	     57.01613130	    -27.83446232	    -13.75428024	     42.12406565	      0.00000000	      0.00000000	      0.73520364	      0.91659659	      0.00000000	      0.00000000	     55.96074892	    -23.83096334	     -2.34438446	     37.50572104	      0.00000000	      0.00000000	      0.65459832	      1.93602371	      0.00000000	      0.00000000
      3.35500000	     -1.96141530	    -27.44939922	      0.29706181	      0.06745354	      0.80066223	     -1.16587126	     57.57807071	    -27.98112855	    -13.54444855	     42.48283805	      0.00000000	      0.00000000	      0.74146540	      0.89225690	      0.00000000	      0.00000000	     56.45838307	    -23.79794821	     -2.25236265	     37.80816877	      0.00000000	      0.00000000	      0.65987703	      1.93958901	      0.00000000	      0.00000000
